<?xml version="1.0" encoding="utf-8"?>
<!-- Generator: Adobe Illustrator 16.0.0, SVG Export Plug-In . SVG Version: 6.00 Build 0)  -->
<!DOCTYPE svg PUBLIC "-//W3C//DTD SVG 1.1//EN" "http://www.w3.org/Graphics/SVG/1.1/DTD/svg11.dtd">
<svg version="1.1" id="Layer_1" xmlns="http://www.w3.org/2000/svg" xmlns:xlink="http://www.w3.org/1999/xlink" x="0px" y="0px"
	 width="329.457px" height="149.449px" viewBox="0 0 329.457 149.449" enable-background="new 0 0 329.457 149.449"
	 xml:space="preserve">
<g>
	<path d="M13.706,130.117c0,1.799-0.614,3.182-1.841,4.15c-1.227,0.968-2.983,1.451-5.267,1.451h-2.09v6.986H2.442v-17.764h4.605
		C11.486,124.941,13.706,126.667,13.706,130.117z M4.508,133.945h1.859c1.831,0,3.155-0.296,3.973-0.887
		c0.818-0.592,1.228-1.539,1.228-2.844c0-1.174-0.385-2.049-1.154-2.625c-0.77-0.574-1.969-0.861-3.597-0.861H4.508V133.945z"/>
	<path d="M23.195,129.146c0.591,0,1.122,0.048,1.591,0.145l-0.279,1.871c-0.551-0.121-1.037-0.182-1.458-0.182
		c-1.078,0-1.999,0.438-2.764,1.313s-1.148,1.965-1.148,3.268v7.145H17.12v-13.316h1.665l0.23,2.467h0.098
		c0.494-0.867,1.089-1.535,1.786-2.005C21.595,129.38,22.361,129.146,23.195,129.146z"/>
	<path d="M38.772,136.035c0,2.171-0.547,3.865-1.641,5.085c-1.093,1.22-2.604,1.829-4.532,1.829c-1.191,0-2.248-0.28-3.171-0.839
		c-0.923-0.56-1.636-1.36-2.139-2.405c-0.502-1.045-0.753-2.269-0.753-3.67c0-2.171,0.542-3.861,1.628-5.072s2.592-1.816,4.52-1.816
		c1.863,0,3.343,0.619,4.441,1.858S38.772,133.92,38.772,136.035z M28.626,136.035c0,1.701,0.34,2.997,1.021,3.889
		c0.68,0.891,1.681,1.336,3.001,1.336s2.323-0.443,3.007-1.33c0.685-0.888,1.027-2.186,1.027-3.895c0-1.693-0.342-2.979-1.027-3.857
		s-1.695-1.318-3.031-1.318c-1.321,0-2.317,0.434-2.989,1.3S28.626,134.318,28.626,136.035z"/>
	<path d="M53.206,129.388v1.275l-2.466,0.292c0.227,0.284,0.429,0.654,0.607,1.112c0.178,0.457,0.268,0.974,0.268,1.549
		c0,1.305-0.446,2.345-1.337,3.123c-0.891,0.777-2.114,1.166-3.669,1.166c-0.397,0-0.77-0.032-1.118-0.098
		c-0.858,0.454-1.288,1.025-1.288,1.713c0,0.365,0.15,0.635,0.45,0.809s0.814,0.262,1.543,0.262h2.357
		c1.442,0,2.549,0.303,3.323,0.91c0.773,0.608,1.16,1.491,1.16,2.649c0,1.474-0.591,2.599-1.774,3.372s-2.908,1.16-5.176,1.16
		c-1.741,0-3.084-0.324-4.028-0.973c-0.943-0.647-1.416-1.563-1.416-2.746c0-0.81,0.259-1.51,0.778-2.102
		c0.518-0.591,1.248-0.992,2.187-1.203c-0.34-0.153-0.625-0.393-0.856-0.717c-0.231-0.323-0.346-0.7-0.346-1.129
		c0-0.486,0.129-0.912,0.389-1.276s0.668-0.717,1.227-1.058c-0.688-0.283-1.25-0.766-1.683-1.445
		c-0.434-0.681-0.65-1.458-0.65-2.333c0-1.458,0.438-2.582,1.313-3.372c0.875-0.789,2.114-1.184,3.718-1.184
		c0.697,0,1.325,0.08,1.883,0.242H53.206z M42.587,144.941c0,0.721,0.304,1.268,0.911,1.641c0.607,0.372,1.478,0.559,2.612,0.559
		c1.693,0,2.947-0.254,3.761-0.76s1.221-1.193,1.221-2.059c0-0.722-0.223-1.222-0.668-1.502c-0.446-0.279-1.284-0.418-2.515-0.418
		h-2.418c-0.916,0-1.628,0.219-2.138,0.656C42.842,143.495,42.587,144.123,42.587,144.941z M43.68,133.653
		c0,0.932,0.263,1.637,0.79,2.114c0.526,0.479,1.259,0.717,2.199,0.717c1.968,0,2.953-0.955,2.953-2.867
		c0-2-0.997-3.002-2.989-3.002c-0.948,0-1.677,0.256-2.187,0.766C43.936,131.891,43.68,132.649,43.68,133.653z"/>
	<path d="M62.016,129.146c0.591,0,1.122,0.048,1.591,0.145l-0.279,1.871c-0.551-0.121-1.037-0.182-1.458-0.182
		c-1.078,0-1.999,0.438-2.764,1.313s-1.148,1.965-1.148,3.268v7.145H55.94v-13.316h1.665l0.23,2.467h0.098
		c0.494-0.867,1.089-1.535,1.786-2.005C60.416,129.38,61.181,129.146,62.016,129.146z"/>
	<path d="M71.724,142.949c-1.968,0-3.522-0.6-4.66-1.799c-1.138-1.199-1.707-2.863-1.707-4.994c0-2.146,0.528-3.852,1.585-5.115
		s2.477-1.895,4.259-1.895c1.668,0,2.989,0.549,3.961,1.646c0.972,1.098,1.458,2.546,1.458,4.344v1.276h-9.173
		c0.041,1.563,0.435,2.75,1.185,3.56c0.749,0.81,1.804,1.216,3.165,1.216c1.434,0,2.851-0.301,4.253-0.9v1.799
		c-0.713,0.309-1.388,0.528-2.023,0.662S72.623,142.949,71.724,142.949z M71.177,130.833c-1.069,0-1.922,0.35-2.558,1.045
		c-0.636,0.697-1.011,1.661-1.124,2.893h6.962c0-1.271-0.284-2.246-0.851-2.922C73.04,131.172,72.229,130.833,71.177,130.833z"/>
	<path d="M88.649,139.072c0,1.24-0.462,2.195-1.385,2.867c-0.923,0.673-2.22,1.01-3.888,1.01c-1.766,0-3.143-0.28-4.131-0.839
		v-1.871c0.64,0.323,1.327,0.579,2.06,0.765c0.733,0.188,1.44,0.28,2.12,0.28c1.053,0,1.863-0.169,2.43-0.505
		s0.851-0.848,0.851-1.537c0-0.518-0.225-0.961-0.674-1.33c-0.45-0.368-1.327-0.804-2.63-1.307c-1.24-0.461-2.121-0.863-2.643-1.209
		c-0.522-0.344-0.911-0.734-1.166-1.172c-0.255-0.438-0.383-0.96-0.383-1.567c0-1.085,0.441-1.942,1.324-2.569
		c0.883-0.628,2.094-0.941,3.633-0.941c1.434,0,2.835,0.291,4.204,0.874l-0.717,1.641c-1.336-0.551-2.547-0.827-3.633-0.827
		c-0.956,0-1.677,0.15-2.163,0.45c-0.486,0.3-0.729,0.713-0.729,1.239c0,0.356,0.091,0.66,0.273,0.912
		c0.183,0.25,0.476,0.489,0.881,0.717c0.405,0.227,1.183,0.555,2.333,0.983c1.58,0.575,2.646,1.154,3.202,1.737
		C88.372,137.457,88.649,138.189,88.649,139.072z"/>
	<path d="M100.52,139.072c0,1.24-0.462,2.195-1.385,2.867c-0.923,0.673-2.22,1.01-3.888,1.01c-1.766,0-3.143-0.28-4.131-0.839
		v-1.871c0.64,0.323,1.327,0.579,2.06,0.765c0.733,0.188,1.44,0.28,2.12,0.28c1.053,0,1.863-0.169,2.43-0.505
		s0.851-0.848,0.851-1.537c0-0.518-0.225-0.961-0.674-1.33c-0.45-0.368-1.327-0.804-2.63-1.307c-1.24-0.461-2.121-0.863-2.643-1.209
		c-0.522-0.344-0.911-0.734-1.166-1.172c-0.255-0.438-0.383-0.96-0.383-1.567c0-1.085,0.441-1.942,1.324-2.569
		c0.883-0.628,2.094-0.941,3.633-0.941c1.434,0,2.835,0.291,4.204,0.874l-0.717,1.641c-1.336-0.551-2.547-0.827-3.633-0.827
		c-0.956,0-1.677,0.15-2.163,0.45c-0.486,0.3-0.729,0.713-0.729,1.239c0,0.356,0.091,0.66,0.273,0.912
		c0.183,0.25,0.476,0.489,0.881,0.717c0.405,0.227,1.183,0.555,2.333,0.983c1.58,0.575,2.646,1.154,3.202,1.737
		C100.242,137.457,100.52,138.189,100.52,139.072z"/>
	<path d="M103.63,125.78c0-0.462,0.113-0.8,0.34-1.015c0.227-0.215,0.51-0.322,0.851-0.322c0.324,0,0.603,0.109,0.838,0.328
		c0.235,0.219,0.352,0.555,0.352,1.009s-0.117,0.792-0.352,1.015c-0.235,0.223-0.515,0.334-0.838,0.334
		c-0.34,0-0.624-0.111-0.851-0.334C103.744,126.572,103.63,126.234,103.63,125.78z M105.817,142.705h-2.017v-13.316h2.017V142.705z"
		/>
	<path d="M113.011,142.705l-5.055-13.316h2.163l2.868,7.898c0.648,1.846,1.029,3.045,1.142,3.596h0.097
		c0.089-0.43,0.371-1.318,0.845-2.667c0.474-1.349,1.537-4.291,3.189-8.827h2.163l-5.055,13.316H113.011z"/>
	<path d="M128.186,142.949c-1.968,0-3.522-0.6-4.66-1.799c-1.138-1.199-1.707-2.863-1.707-4.994c0-2.146,0.528-3.852,1.585-5.115
		s2.477-1.895,4.259-1.895c1.668,0,2.989,0.549,3.961,1.646c0.972,1.098,1.458,2.546,1.458,4.344v1.276h-9.173
		c0.041,1.563,0.435,2.75,1.185,3.56c0.749,0.81,1.804,1.216,3.165,1.216c1.434,0,2.851-0.301,4.253-0.9v1.799
		c-0.713,0.309-1.388,0.528-2.023,0.662S129.085,142.949,128.186,142.949z M127.639,130.833c-1.069,0-1.922,0.35-2.558,1.045
		c-0.636,0.697-1.011,1.661-1.124,2.893h6.962c0-1.271-0.284-2.246-0.851-2.922C129.502,131.172,128.692,130.833,127.639,130.833z"
		/>
	<path d="M158.793,142.705h-2.042l-3.584-11.895c-0.17-0.527-0.36-1.191-0.571-1.992c-0.211-0.803-0.32-1.284-0.328-1.447
		c-0.178,1.07-0.462,2.24-0.851,3.512l-3.475,11.822h-2.041l-4.727-17.764h2.187l2.807,10.973c0.389,1.539,0.672,2.932,0.851,4.18
		c0.219-1.482,0.542-2.933,0.972-4.35l3.183-10.803h2.187l3.342,10.899c0.389,1.255,0.717,2.673,0.984,4.253
		c0.154-1.15,0.445-2.553,0.875-4.205l2.794-10.947h2.187L158.793,142.705z"/>
	<path d="M171.648,142.949c-1.968,0-3.522-0.6-4.66-1.799c-1.138-1.199-1.707-2.863-1.707-4.994c0-2.146,0.528-3.852,1.585-5.115
		s2.477-1.895,4.259-1.895c1.668,0,2.988,0.549,3.961,1.646c0.973,1.098,1.458,2.546,1.458,4.344v1.276h-9.173
		c0.041,1.563,0.435,2.75,1.185,3.56c0.749,0.81,1.804,1.216,3.166,1.216c1.434,0,2.851-0.301,4.252-0.9v1.799
		c-0.713,0.309-1.387,0.528-2.023,0.662C173.315,142.881,172.547,142.949,171.648,142.949z M171.101,130.833
		c-1.069,0-1.922,0.35-2.558,1.045c-0.636,0.697-1.011,1.661-1.124,2.893h6.962c0-1.271-0.283-2.246-0.85-2.922
		C172.963,131.172,172.154,130.833,171.101,130.833z"/>
	<path d="M186.18,129.169c1.75,0,3.107,0.598,4.076,1.793c0.968,1.194,1.452,2.885,1.452,5.072s-0.488,3.887-1.464,5.098
		c-0.977,1.211-2.332,1.816-4.064,1.816c-0.867,0-1.658-0.16-2.375-0.48c-0.718-0.32-1.318-0.813-1.805-1.477h-0.146l-0.425,1.713
		h-1.446v-18.905H182v4.593c0,1.029-0.033,1.952-0.098,2.77H182C182.94,129.833,184.333,129.169,186.18,129.169z M185.888,130.859
		c-1.377,0-2.369,0.395-2.977,1.184c-0.608,0.791-0.911,2.121-0.911,3.992s0.312,3.209,0.936,4.016
		c0.623,0.807,1.623,1.209,3.001,1.209c1.239,0,2.163-0.451,2.771-1.355c0.607-0.902,0.911-2.201,0.911-3.894
		c0-1.733-0.304-3.025-0.911-3.876S187.16,130.859,185.888,130.859z"/>
	<path d="M213.166,142.705l-2.212-5.649h-7.119l-2.188,5.649h-2.09l7.023-17.836h1.736l6.987,17.836H213.166z M210.31,135.197
		l-2.065-5.505c-0.268-0.696-0.543-1.551-0.826-2.563c-0.178,0.777-0.434,1.633-0.766,2.563l-2.09,5.505H210.31z"/>
	<path d="M223.639,142.949c-0.867,0-1.658-0.16-2.375-0.48s-1.318-0.813-1.805-1.477h-0.146c0.097,0.777,0.146,1.516,0.146,2.211
		v5.48h-2.017v-19.295h1.64l0.279,1.822h0.098c0.519-0.729,1.122-1.255,1.811-1.579c0.688-0.323,1.479-0.485,2.369-0.485
		c1.766,0,3.129,0.604,4.089,1.81c0.96,1.207,1.44,2.899,1.44,5.079c0,2.188-0.488,3.887-1.465,5.098
		S225.373,142.949,223.639,142.949z M223.348,130.859c-1.361,0-2.346,0.377-2.953,1.129c-0.607,0.754-0.92,1.953-0.936,3.598v0.449
		c0,1.871,0.313,3.209,0.936,4.016c0.624,0.807,1.624,1.209,3.002,1.209c1.149,0,2.051-0.466,2.703-1.397
		c0.652-0.931,0.979-2.216,0.979-3.852c0-1.661-0.326-2.935-0.979-3.821S224.53,130.859,223.348,130.859z"/>
	<path d="M238.887,142.949c-0.866,0-1.658-0.16-2.375-0.48s-1.318-0.813-1.805-1.477h-0.145c0.097,0.777,0.145,1.516,0.145,2.211
		v5.48h-2.016v-19.295h1.64l0.279,1.822h0.097c0.52-0.729,1.123-1.255,1.811-1.579c0.689-0.323,1.479-0.485,2.369-0.485
		c1.767,0,3.129,0.604,4.09,1.81c0.959,1.207,1.439,2.899,1.439,5.079c0,2.188-0.488,3.887-1.465,5.098
		C241.976,142.343,240.622,142.949,238.887,142.949z M238.596,130.859c-1.361,0-2.345,0.377-2.953,1.129
		c-0.607,0.754-0.919,1.953-0.936,3.598v0.449c0,1.871,0.313,3.209,0.936,4.016c0.625,0.807,1.625,1.209,3.002,1.209
		c1.15,0,2.051-0.466,2.703-1.397c0.652-0.931,0.979-2.216,0.979-3.852c0-1.661-0.326-2.935-0.979-3.821
		S239.779,130.859,238.596,130.859z"/>
	<path d="M249.958,142.705h-2.018v-18.905h2.018V142.705z"/>
	<path d="M254.063,125.78c0-0.462,0.113-0.8,0.341-1.015c0.227-0.215,0.511-0.322,0.851-0.322c0.324,0,0.604,0.109,0.838,0.328
		c0.235,0.219,0.353,0.555,0.353,1.009s-0.117,0.792-0.353,1.015c-0.234,0.223-0.514,0.334-0.838,0.334
		c-0.34,0-0.624-0.111-0.851-0.334C254.176,126.572,254.063,126.234,254.063,125.78z M256.25,142.705h-2.017v-13.316h2.017V142.705z
		"/>
	<path d="M265.85,142.949c-1.929,0-3.421-0.594-4.479-1.781c-1.057-1.186-1.585-2.865-1.585-5.035c0-2.229,0.536-3.949,1.61-5.164
		c1.072-1.215,2.602-1.822,4.586-1.822c0.641,0,1.279,0.068,1.92,0.206c0.64,0.138,1.143,0.3,1.507,0.485l-0.62,1.714
		c-0.445-0.179-0.932-0.326-1.457-0.444c-0.527-0.117-0.993-0.176-1.398-0.176c-2.705,0-4.058,1.726-4.058,5.176
		c0,1.637,0.329,2.893,0.99,3.768c0.66,0.875,1.638,1.313,2.935,1.313c1.109,0,2.248-0.24,3.414-0.718v1.786
		C268.325,142.717,267.202,142.949,265.85,142.949z"/>
	<path d="M280.563,142.705l-0.4-1.895h-0.098c-0.664,0.834-1.326,1.398-1.986,1.694s-1.484,0.444-2.473,0.444
		c-1.32,0-2.355-0.341-3.104-1.021c-0.75-0.68-1.125-1.648-1.125-2.904c0-2.688,2.151-4.098,6.452-4.228l2.261-0.073v-0.826
		c0-1.045-0.225-1.816-0.675-2.314s-1.169-0.748-2.157-0.748c-1.109,0-2.365,0.341-3.766,1.021l-0.62-1.543
		c0.656-0.356,1.375-0.637,2.157-0.839c0.781-0.202,1.564-0.304,2.351-0.304c1.587,0,2.765,0.353,3.53,1.057
		c0.765,0.705,1.147,1.836,1.147,3.391v9.088H280.563z M276.007,141.284c1.255,0,2.241-0.345,2.958-1.033s1.076-1.652,1.076-2.892
		v-1.203l-2.018,0.086c-1.604,0.057-2.76,0.305-3.469,0.746s-1.063,1.129-1.063,2.061c0,0.729,0.221,1.283,0.662,1.664
		S275.213,141.284,276.007,141.284z"/>
	<path d="M290.514,141.284c0.357,0,0.701-0.026,1.033-0.079s0.596-0.107,0.79-0.164v1.543c-0.219,0.105-0.54,0.192-0.966,0.262
		c-0.426,0.068-0.809,0.104-1.148,0.104c-2.576,0-3.863-1.357-3.863-4.07v-7.923h-1.908v-0.972l1.908-0.838l0.85-2.844h1.167v3.086
		h3.864v1.567h-3.864v7.837c0,0.803,0.19,1.418,0.571,1.848C289.329,141.069,289.85,141.284,290.514,141.284z"/>
	<path d="M294.829,125.78c0-0.462,0.113-0.8,0.34-1.015s0.51-0.322,0.851-0.322c0.323,0,0.603,0.109,0.839,0.328
		c0.234,0.219,0.352,0.555,0.352,1.009s-0.117,0.792-0.352,1.015c-0.236,0.223-0.516,0.334-0.839,0.334
		c-0.341,0-0.624-0.111-0.851-0.334S294.829,126.234,294.829,125.78z M297.015,142.705h-2.017v-13.316h2.017V142.705z"/>
	<path d="M312.787,136.035c0,2.171-0.547,3.865-1.641,5.085c-1.093,1.22-2.604,1.829-4.532,1.829c-1.19,0-2.248-0.28-3.171-0.839
		c-0.923-0.56-1.636-1.36-2.139-2.405c-0.502-1.045-0.753-2.269-0.753-3.67c0-2.171,0.543-3.861,1.628-5.072
		s2.593-1.816,4.521-1.816c1.862,0,3.343,0.619,4.44,1.858S312.787,133.92,312.787,136.035z M302.641,136.035
		c0,1.701,0.34,2.997,1.021,3.889c0.681,0.891,1.681,1.336,3.001,1.336s2.322-0.443,3.008-1.33c0.684-0.888,1.026-2.186,1.026-3.895
		c0-1.693-0.343-2.979-1.026-3.857c-0.686-0.879-1.695-1.318-3.031-1.318c-1.321,0-2.317,0.434-2.99,1.3
		C302.977,133.025,302.641,134.318,302.641,136.035z"/>
	<path d="M325.435,142.705v-8.614c0-1.085-0.247-1.896-0.741-2.43s-1.268-0.802-2.32-0.802c-1.395,0-2.414,0.377-3.063,1.129
		c-0.648,0.754-0.973,1.998-0.973,3.73v6.986h-2.016v-13.316h1.64l0.328,1.822h0.097c0.414-0.656,0.992-1.164,1.738-1.524
		c0.744-0.36,1.575-0.54,2.49-0.54c1.604,0,2.811,0.387,3.621,1.16s1.215,2.01,1.215,3.711v8.688H325.435z"/>
</g>
<path fill-rule="evenodd" clip-rule="evenodd" fill="#11365A" d="M261.165,0.02c-0.789,2.337-1.787,4.593-2.709,6.878
	C248.01,32.832,237.55,58.76,227.096,84.689c-4.859,12.053-9.723,24.103-14.557,36.164c-0.276,0.689-0.599,0.918-1.346,0.916
	c-10.131-0.027-20.262-0.024-30.393-0.004c-0.607,0.002-0.831-0.182-1.012-0.76c-7.17-22.952-14.361-45.898-21.55-68.845
	c-0.078-0.249-0.156-0.498-0.237-0.755c-0.296,0.19-0.289,0.514-0.375,0.776c-7.539,22.944-15.072,45.89-22.584,68.842
	c-0.191,0.582-0.435,0.743-1.032,0.742c-10.183-0.021-20.366-0.021-30.55,0c-0.555,0-0.829-0.192-1.095-0.65
	c-5.25-9.044-10.511-18.082-15.79-27.108c-0.321-0.55-0.37-1.017-0.175-1.617c5.28-16.226,10.543-32.458,15.817-48.686
	c0.077-0.237,0.077-0.529,0.357-0.721c5.99,11.87,11.972,23.727,18.014,35.7c8.572-26.305,17.103-52.484,25.633-78.662
	c8.368,0,16.736,0,25.104,0c-0.076,0.359,0.11,0.67,0.207,0.989c6.714,22.127,13.436,44.252,20.155,66.378
	c1.125,3.703,2.244,7.409,3.417,11.281c0.18-0.408,0.295-0.665,0.406-0.925c9.729-22.79,19.457-45.58,29.182-68.372
	c1.328-3.112,2.631-6.234,3.945-9.352C239.481,0.02,250.323,0.02,261.165,0.02z"/>
<path fill-rule="evenodd" clip-rule="evenodd" d="M57.49,0.02c1.263,0.347,2.574,0.295,3.86,0.457
	c9.025,1.136,17.158,4.218,23.688,10.81c1.669,1.685,3.145,3.531,4.467,5.504c0.263,0.392,0.298,0.721,0.156,1.157
	c-5.391,16.566-10.772,33.135-16.154,49.704c-1.029,3.169-2.072,6.334-3.067,9.513c-0.18,0.574-0.462,0.846-1.034,0.994
	c-4.478,1.16-9.037,1.727-13.651,1.762c-6.997,0.053-13.995,0.037-20.992,0.012c-0.723-0.004-0.854,0.208-0.853,0.879
	c0.02,13.338,0.008,26.676,0.033,40.014c0.001,0.753-0.166,0.948-0.935,0.945c-9.997-0.029-19.994-0.02-29.99-0.02
	c0-40.322,0.001-80.643-0.016-120.965C3.003,0.176,3.082,0,3.754,0C21.666,0.025,39.578,0.02,57.49,0.02z M33.926,39.965
	c0,5.208,0.011,10.416-0.014,15.623c-0.003,0.617,0.154,0.792,0.781,0.786c3.576-0.031,7.154,0.003,10.73-0.021
	c2.657-0.018,5.3-0.202,7.911-0.761c5.259-1.127,8.927-4.067,10.528-9.294c1.205-3.93,1.328-7.937,0.229-11.9
	c-1.312-4.728-4.267-7.988-9.024-9.502c-2.347-0.748-4.759-1.138-7.207-1.18c-4.391-0.075-8.784-0.036-13.176-0.082
	c-0.634-0.007-0.775,0.18-0.772,0.788C33.936,29.603,33.926,34.784,33.926,39.965z"/>
<path fill-rule="evenodd" clip-rule="evenodd" d="M326.371,121.75c-10.997,0-21.995-0.006-32.992,0.018
	c-0.63,0-0.901-0.174-1.116-0.771c-2.398-6.748-4.84-13.481-7.238-20.23c-0.22-0.617-0.484-0.828-1.152-0.827
	c-13.971,0.022-27.941,0.017-41.912,0.017c-0.971,0-0.969,0-0.616-0.892c2.907-7.343,5.821-14.684,8.704-22.036
	c0.223-0.569,0.493-0.725,1.079-0.724c8.393,0.02,16.786,0.014,25.179,0.014c0.287,0,0.574,0,0.975,0
	c-0.206-0.599-0.383-1.129-0.571-1.655c-3.987-11.169-7.973-22.339-11.972-33.504c-0.16-0.446-0.169-0.817,0.009-1.268
	c5.165-13.023,10.313-26.054,15.467-39.083c0.083-0.211,0.177-0.418,0.315-0.743c0.935,2.463,1.831,4.813,2.718,7.167
	c10.79,28.653,21.577,57.309,32.367,85.963c3.476,9.231,6.956,18.463,10.438,27.693c0.09,0.241,0.212,0.47,0.32,0.705
	C326.371,121.645,326.371,121.697,326.371,121.75z"/>
</svg>
